<svg id="visual" viewBox="0 0 900 600" width="900" height="600" xmlns="http://www.w3.org/2000/svg" xmlns:xlink="http://www.w3.org/1999/xlink" version="1.1"><path d="M0 470L69 470L69 404L138 404L138 438L208 438L208 488L277 488L277 434L346 434L346 475L415 475L415 494L485 494L485 434L554 434L554 469L623 469L623 450L692 450L692 484L762 484L762 404L831 404L831 442L900 442L900 414L900 601L900 601L831 601L831 601L762 601L762 601L692 601L692 601L623 601L623 601L554 601L554 601L485 601L485 601L415 601L415 601L346 601L346 601L277 601L277 601L208 601L208 601L138 601L138 601L69 601L69 601L0 601Z" fill="#01723A" stroke-linecap="square" stroke-linejoin="miter"></path></svg>