<svg id="visual" viewBox="0 0 1920 1080" width="1920" height="1080" xmlns="http://www.w3.org/2000/svg" xmlns:xlink="http://www.w3.org/1999/xlink" version="1.1"><path d="M0 914L128 914L128 843L256 843L256 809L384 809L384 738L512 738L512 783L640 783L640 858L768 858L768 805L896 805L896 755L1024 755L1024 779L1152 779L1152 795L1280 795L1280 890L1408 890L1408 715L1536 715L1536 770L1664 770L1664 688L1792 688L1792 920L1920 920L1920 687L1920 1081L1920 1081L1792 1081L1792 1081L1664 1081L1664 1081L1536 1081L1536 1081L1408 1081L1408 1081L1280 1081L1280 1081L1152 1081L1152 1081L1024 1081L1024 1081L896 1081L896 1081L768 1081L768 1081L640 1081L640 1081L512 1081L512 1081L384 1081L384 1081L256 1081L256 1081L128 1081L128 1081L0 1081Z" fill="#002233" stroke-linecap="square" stroke-linejoin="miter"></path></svg>