<svg id="visual" viewBox="0 0 900 600" width="900" height="600" xmlns="http://www.w3.org/2000/svg" xmlns:xlink="http://www.w3.org/1999/xlink" version="1.1"><path d="M0 370L21.5 377.3C43 384.7 86 399.3 128.8 396.7C171.7 394 214.3 374 257.2 377.8C300 381.7 343 409.3 385.8 413.2C428.7 417 471.3 397 514.2 394.8C557 392.7 600 408.3 642.8 419.3C685.7 430.3 728.3 436.7 771.2 430.3C814 424 857 405 878.5 395.5L900 386L900 601L878.5 601C857 601 814 601 771.2 601C728.3 601 685.7 601 642.8 601C600 601 557 601 514.2 601C471.3 601 428.7 601 385.8 601C343 601 300 601 257.2 601C214.3 601 171.7 601 128.8 601C86 601 43 601 21.5 601L0 601Z" fill="#fa7268"></path><path d="M0 400L21.5 411.3C43 422.7 86 445.3 128.8 454C171.7 462.7 214.3 457.3 257.2 451.7C300 446 343 440 385.8 431.8C428.7 423.7 471.3 413.3 514.2 418.3C557 423.3 600 443.7 642.8 446.8C685.7 450 728.3 436 771.2 433.5C814 431 857 440 878.5 444.5L900 449L900 601L878.5 601C857 601 814 601 771.2 601C728.3 601 685.7 601 642.8 601C600 601 557 601 514.2 601C471.3 601 428.7 601 385.8 601C343 601 300 601 257.2 601C214.3 601 171.7 601 128.8 601C86 601 43 601 21.5 601L0 601Z" fill="#ef5f67"></path><path d="M0 492L21.5 493.2C43 494.3 86 496.7 128.8 499.5C171.7 502.3 214.3 505.7 257.2 506.8C300 508 343 507 385.8 501.5C428.7 496 471.3 486 514.2 486.2C557 486.3 600 496.7 642.8 492.3C685.7 488 728.3 469 771.2 461.3C814 453.7 857 457.3 878.5 459.2L900 461L900 601L878.5 601C857 601 814 601 771.2 601C728.3 601 685.7 601 642.8 601C600 601 557 601 514.2 601C471.3 601 428.7 601 385.8 601C343 601 300 601 257.2 601C214.3 601 171.7 601 128.8 601C86 601 43 601 21.5 601L0 601Z" fill="#e34c67"></path><path d="M0 526L21.5 520.8C43 515.7 86 505.3 128.8 507C171.7 508.7 214.3 522.3 257.2 525.3C300 528.3 343 520.7 385.8 521.7C428.7 522.7 471.3 532.3 514.2 528C557 523.7 600 505.3 642.8 499.3C685.7 493.3 728.3 499.7 771.2 506.7C814 513.7 857 521.3 878.5 525.2L900 529L900 601L878.5 601C857 601 814 601 771.2 601C728.3 601 685.7 601 642.8 601C600 601 557 601 514.2 601C471.3 601 428.7 601 385.8 601C343 601 300 601 257.2 601C214.3 601 171.7 601 128.8 601C86 601 43 601 21.5 601L0 601Z" fill="#d53867"></path><path d="M0 544L21.5 546C43 548 86 552 128.8 554.3C171.7 556.7 214.3 557.3 257.2 557.5C300 557.7 343 557.3 385.8 556.3C428.7 555.3 471.3 553.7 514.2 551.8C557 550 600 548 642.8 550.2C685.7 552.3 728.3 558.7 771.2 563.2C814 567.7 857 570.3 878.5 571.7L900 573L900 601L878.5 601C857 601 814 601 771.2 601C728.3 601 685.7 601 642.8 601C600 601 557 601 514.2 601C471.3 601 428.7 601 385.8 601C343 601 300 601 257.2 601C214.3 601 171.7 601 128.8 601C86 601 43 601 21.5 601L0 601Z" fill="#c62368"></path></svg>